<?xml version="1.0" encoding="UTF-8"?>
<svg id="Layer_1" data-name="Layer 1" xmlns="http://www.w3.org/2000/svg" viewBox="0 0 1000 1000">
  <defs>
    <style>
      .cls-1 {
        fill: #210076;
      }
    </style>
  </defs>
  <path class="cls-1" d="M374.08,433.56v11.16c0,31.17-15.44,60.2-41.34,77.74-25.89-17.54-41.34-46.57-41.34-77.74v-11.16h-127.32v11.16c0,64.05,52.11,116.16,116.16,116.16,18.47,0,36.13-4.22,52.5-12.55,16.37,8.33,34.03,12.55,52.5,12.55,64.05,0,116.16-52.11,116.16-116.16v-11.16h-127.32ZM478.42,455.88c-5.61,47.19-45.54,82.67-93.17,82.67-10.36,0-20.52-1.68-30.24-5,23.48-19.78,37.96-47.29,40.87-77.68h82.55ZM269.62,455.88c2.9,30.38,17.39,57.9,40.86,77.68-9.72,3.32-19.88,5-30.24,5-47.63,0-87.56-35.49-93.17-82.67h82.55Z"/>
  <g>
    <path class="cls-1" d="M615.44,434.21c-.33,1.55-.69,3.45-1.06,5.46-.58,3.09-1.23,6.6-1.93,9.39-1.12,4.51-2.34,9.23-3.63,14.04-1.27,4.73-2.59,9.43-3.92,13.97-.58,1.98-1.16,4.19-1.71,6.32-.46,1.77-.91,3.48-1.35,5.04-.55-1.9-1.1-3.97-1.64-5.99-.57-2.16-1.17-4.4-1.74-6.36-1.36-4.61-2.64-9.28-3.82-13.88-1.17-4.6-2.29-9.16-3.32-13.55-.58-2.46-1.13-5.46-1.66-8.36-.41-2.24-.8-4.36-1.17-6.07l-.14-.65h-14.54l-.14.65c-.35,1.6-.72,3.56-1.11,5.64-.57,3.05-1.16,6.2-1.8,8.78-1.09,4.39-2.26,8.94-3.48,13.55-1.23,4.62-2.54,9.29-3.91,13.89-.58,1.97-1.18,4.22-1.76,6.4-.54,2.04-1.1,4.14-1.66,6.05-.57-1.88-1.14-4-1.69-6.06-.49-1.81-.99-3.69-1.49-5.39-1.32-4.51-2.62-9.21-3.85-13.96-1.22-4.71-2.42-9.44-3.57-14.05-.69-2.79-1.35-6.29-1.92-9.38-.38-2.01-.73-3.91-1.06-5.46l-.14-.65h-19.94l.29,1.05c.83,3.03,1.68,6.47,2.51,9.79,1.17,4.71,2.39,9.59,3.61,13.69.8,2.7,1.62,5.63,2.42,8.46,1.26,4.5,2.57,9.16,3.85,13.07,2.07,6.3,4.18,12.33,6.27,17.92,2.07,5.56,4.09,10.59,5.99,14.95l.22.5h15.24l.19-.55c2.44-6.94,4.94-14.47,7.45-22.39,1.98-6.24,3.83-13.45,5.63-20.42.2-.79.41-1.58.61-2.36l.2.78c1.94,7.51,3.95,15.28,6.17,22.01,2.59,7.88,5.15,15.41,7.59,22.38l.19.55h15.09l.22-.48c1.99-4.35,4.05-9.38,6.14-14.96,2.08-5.58,4.19-11.61,6.27-17.92,1.28-3.9,2.58-8.55,3.84-13.05.79-2.84,1.61-5.77,2.42-8.47,1.22-4.09,2.43-8.96,3.6-13.67.83-3.33,1.69-6.77,2.52-9.81l.29-1.05h-19.51l-.14.65Z"/>
    <path class="cls-1" d="M697.74,451.74c-1.02-3.75-2.75-6.99-5.15-9.64-2.41-2.65-5.65-4.73-9.62-6.18-3.95-1.45-8.87-2.29-14.63-2.18-13.1.25-22.39,3.03-22.39,3.03l-3.12,16.59s20.45-6.12,30.8-2.41c1.84.66,3.29,1.71,4.37,2.97,1.09,1.27,1.87,2.76,2.31,4.42.28,1.05.48,2.17.59,3.35.04.42.06.85.08,1.28,0,.27.02.56.02.84v1.8c-1.99-.45-3.92-.78-5.75-.99-2.15-.24-4.19-.36-6.05-.36-4.1,0-8.1.41-11.89,1.23-3.82.82-7.23,2.2-10.15,4.09-2.95,1.92-5.31,4.43-7.01,7.46-1.61,2.86-2.48,6.36-2.59,10.38,0,.23,0,.46,0,.69,0,.57,0,1.13.03,1.67.16,3.84.92,7.17,2.25,9.9,1.52,3.15,3.66,5.74,6.36,7.7,2.67,1.95,5.95,3.38,9.75,4.26,3.74.86,7.91,1.29,12.4,1.29h.1c11.91,0,25.91-15.45,29.91-20.19l.2-.23v-37.15c-.26-1.39-.52-2.57-.8-3.62ZM680.99,479.35v17.71c-2.68.47-6.46.71-11.24.71-4.17,0-7.51-.75-9.93-2.23-2.16-1.32-3.31-3.72-3.42-7.19,0-.19-.02-.4-.02-.59,0-1.88.44-3.45,1.27-4.66.86-1.25,2.02-2.23,3.44-2.92,1.48-.72,3.17-1.22,5.02-1.49,1.88-.27,3.78-.41,5.63-.41,2.12,0,4.08.14,5.83.41,1.45.23,2.57.45,3.43.67Z"/>
    <path class="cls-1" d="M753.39,434.25c-1.88,7.51-3.9,15.19-6.02,22.82-2.42,8.73-5.03,17.08-7.76,24.88-1.52-3.5-3.05-7.28-4.56-11.25-1.78-4.67-3.5-9.46-5.12-14.24-1.6-4.75-3.11-9.49-4.48-14.1-.81-2.73-1.56-5.39-2.28-8.12l-.16-.62h-19.89l.31,1.06c3.55,12.05,7.58,23.65,11.98,34.49,4.55,11.23,9.23,20.19,14.18,29.68l1.28,2.46c-1.81,4.13-3.91,7.22-6.25,9.2-2.35,1.99-5.7,3-9.95,3-3.21,0-6.51-.65-9.83-1.93l-.89-.35-3.48,15.34.58.29c1.38.69,3.43,1.34,6.09,1.92,2.65.58,5.36.87,8.07.87,4.04,0,7.66-.47,10.76-1.38,3.12-.93,5.99-2.44,8.53-4.48,2.52-2.03,4.82-4.63,6.85-7.72,2.01-3.06,3.99-6.78,5.89-11.05,10.5-23.81,18.56-46.16,25.36-70.35l.3-1.05h-19.35l-.16.63Z"/>
    <path class="cls-1" d="M831.7,476.31c-2.78-3.45-6.29-5.84-10.43-7.12l-11.73-3.61c-3.75-1.16-7.01-2.44-9.67-3.82-2.45-1.26-3.64-2.9-3.64-5.02,0-2.24.89-3.89,2.71-5.05,1.92-1.22,4.35-1.84,7.23-1.84,6.39,0,10.68,2.59,13.11,7.92l.37.82,14.92-8.36-.38-.72c-2.62-4.94-6.43-8.84-11.31-11.62-4.88-2.76-10.5-4.16-16.71-4.16-7.83,0-14.48,2.15-19.77,6.38-5.35,4.28-8.06,10-8.06,17.02,0,5.1,1.43,9.37,4.25,12.7,2.8,3.31,6.31,5.63,10.45,6.9l11.73,3.61c3.74,1.15,6.98,2.47,9.63,3.91,2.44,1.33,3.62,2.97,3.62,5.02,0,5-3.83,7.43-11.71,7.43s-13.15-3.29-15.59-10.07l-.34-.93-15.22,8.84.3.68c2.42,5.55,6.36,9.95,11.7,13.07,5.32,3.11,11.76,4.69,19.15,4.69,8.41,0,15.49-2.09,21.07-6.21,5.66-4.18,8.52-10.01,8.52-17.34,0-5.24-1.42-9.66-4.21-13.13Z"/>
  </g>
  <g>
    <path class="cls-1" d="M557.43,540.25c.36.65.77,1.46,1.24,2.43.47.96.95,2,1.46,3.12.51,1.12,1.01,2.27,1.51,3.44.5,1.17.96,2.27,1.4,3.3.44-1.03.9-2.13,1.4-3.3.5-1.17,1-2.32,1.51-3.44.51-1.12.99-2.16,1.46-3.12.47-.96.88-1.77,1.24-2.43h4.23c.2,1.37.38,2.9.55,4.6.17,1.7.32,3.46.45,5.3.13,1.84.25,3.68.36,5.52.11,1.84.2,3.58.28,5.21h-4.52c-.06-2-.14-4.19-.24-6.55-.1-2.36-.25-4.74-.45-7.14-.36.83-.76,1.76-1.19,2.77-.44,1.01-.87,2.02-1.3,3.04-.43,1.01-.84,1.98-1.24,2.9s-.74,1.71-1.01,2.37h-3.24c-.28-.65-.62-1.44-1.02-2.37-.4-.92-.81-1.89-1.24-2.9-.43-1.01-.86-2.02-1.3-3.04-.44-1.01-.84-1.93-1.19-2.77-.2,2.4-.35,4.78-.45,7.14-.1,2.36-.18,4.54-.24,6.55h-4.52c.08-1.63.17-3.36.28-5.21.11-1.84.23-3.68.36-5.52.13-1.83.28-3.6.45-5.3.17-1.7.35-3.23.55-4.6h4.43Z"/>
    <path class="cls-1" d="M583.97,544.8c1.31,0,2.4.15,3.27.45.87.3,1.57.72,2.1,1.28.53.56.9,1.23,1.12,2.02.22.79.33,1.68.33,2.65v9.22c-.64.14-1.52.3-2.65.49-1.13.19-2.5.28-4.11.28-1.01,0-1.93-.09-2.75-.27-.82-.18-1.53-.47-2.13-.88-.6-.41-1.05-.94-1.37-1.59-.32-.65-.48-1.46-.48-2.41s.18-1.69.55-2.32c.37-.63.86-1.14,1.47-1.52.61-.38,1.32-.65,2.11-.82.79-.17,1.62-.25,2.47-.25.58,0,1.09.02,1.53.07.45.05.81.11,1.09.19v-.42c0-.75-.23-1.36-.68-1.82-.46-.46-1.25-.68-2.38-.68-.75,0-1.5.06-2.23.16-.73.11-1.37.26-1.9.46l-.57-3.57c.26-.08.58-.16.97-.25s.81-.17,1.26-.24c.46-.07.94-.13,1.44-.18.51-.05,1.02-.07,1.53-.07ZM584.33,557.78c.44,0,.85,0,1.25-.03.4-.02.71-.05.95-.09v-3.36c-.18-.04-.45-.08-.8-.12-.36-.04-.68-.06-.98-.06-.42,0-.81.02-1.18.07-.37.05-.69.14-.97.28-.28.14-.5.33-.65.57-.16.24-.24.54-.24.89,0,.69.23,1.18.7,1.44.47.27,1.11.4,1.92.4Z"/>
    <path class="cls-1" d="M604.24,549.15c-.4-.1-.86-.2-1.4-.31-.54-.11-1.11-.16-1.73-.16-.28,0-.61.03-1,.07-.39.05-.68.1-.88.16v11.96h-4.43v-14.82c.79-.28,1.73-.54,2.81-.79,1.08-.25,2.29-.37,3.62-.37.24,0,.53.01.86.04.34.03.67.07,1.01.12.34.05.67.11,1.01.18.34.07.62.15.86.25l-.74,3.66Z"/>
    <path class="cls-1" d="M611.8,550.84c.44-.47.89-.97,1.35-1.48.47-.51.92-1.02,1.35-1.52.44-.5.85-.98,1.23-1.44.39-.45.72-.85,1-1.18h5.27c-1.05,1.21-2.08,2.36-3.08,3.46-1,1.1-2.1,2.23-3.29,3.4.6.54,1.21,1.18,1.85,1.92.63.75,1.25,1.52,1.84,2.31.6.8,1.14,1.59,1.64,2.38.5.8.91,1.52,1.25,2.18h-5.1c-.32-.52-.68-1.09-1.08-1.72-.41-.63-.84-1.25-1.29-1.88s-.94-1.23-1.44-1.8c-.5-.58-1.01-1.06-1.5-1.46v6.86h-4.43v-20.38l4.43-.71v11.06Z"/>
    <path class="cls-1" d="M622.78,553.17c0-1.39.21-2.6.64-3.65.43-1.04.99-1.91,1.68-2.6.69-.69,1.49-1.22,2.4-1.58.9-.36,1.83-.54,2.78-.54,2.22,0,3.98.68,5.27,2.04,1.29,1.36,1.93,3.36,1.93,6,0,.26-.01.54-.03.85-.02.31-.04.58-.06.82h-10.06c.1.91.53,1.64,1.28,2.17.75.54,1.77.8,3.04.8.81,0,1.61-.07,2.4-.22.78-.15,1.42-.33,1.92-.55l.6,3.6c-.24.12-.56.24-.95.36-.4.12-.84.22-1.32.31-.49.09-1.01.16-1.56.22-.56.06-1.11.09-1.67.09-1.41,0-2.63-.21-3.68-.62-1.04-.42-1.9-.99-2.59-1.71-.68-.72-1.19-1.58-1.52-2.57-.33-.99-.49-2.06-.49-3.21ZM633.19,551.47c-.02-.38-.08-.74-.19-1.1-.11-.36-.28-.67-.51-.95-.23-.28-.52-.51-.86-.68-.35-.18-.78-.27-1.29-.27s-.92.08-1.28.25c-.36.17-.65.39-.89.67-.24.28-.42.6-.55.97-.13.37-.22.74-.28,1.12h5.86Z"/>
    <path class="cls-1" d="M640.75,540.49l4.43-.71v5.44h5.33v3.69h-5.33v5.51c0,.93.16,1.68.49,2.23.33.56.99.83,1.98.83.48,0,.97-.04,1.47-.13.51-.09.97-.21,1.38-.37l.62,3.45c-.54.22-1.13.41-1.79.57-.65.16-1.46.24-2.41.24-1.21,0-2.21-.16-3.01-.49-.79-.33-1.43-.78-1.9-1.37-.48-.58-.81-1.29-1-2.13-.19-.83-.28-1.76-.28-2.77v-13.98Z"/>
    <path class="cls-1" d="M658.96,540.7c0,.81-.26,1.45-.79,1.92-.53.47-1.15.7-1.86.7s-1.33-.23-1.86-.7c-.53-.47-.79-1.11-.79-1.92s.26-1.45.79-1.92c.53-.47,1.15-.7,1.86-.7s1.33.23,1.86.7c.53.47.79,1.11.79,1.92ZM658.55,560.87h-4.43v-15.65h4.43v15.65Z"/>
    <path class="cls-1" d="M662.71,545.76c.75-.22,1.73-.42,2.92-.61,1.19-.19,2.44-.28,3.75-.28s2.44.17,3.32.52c.88.35,1.58.84,2.1,1.47.52.64.88,1.39,1.1,2.26s.33,1.84.33,2.92v8.84h-4.43v-8.3c0-1.43-.19-2.44-.57-3.04-.38-.6-1.08-.89-2.11-.89-.32,0-.65.01-1.01.04-.36.03-.67.06-.95.1v12.08h-4.43v-15.12Z"/>
    <path class="cls-1" d="M693.75,558.91c0,2.56-.65,4.46-1.95,5.7-1.3,1.24-3.31,1.86-6.03,1.86-.95,0-1.9-.08-2.86-.25-.95-.17-1.84-.39-2.65-.67l.77-3.72c.69.28,1.42.5,2.19.65.76.16,1.63.24,2.6.24,1.27,0,2.17-.28,2.69-.83.53-.56.79-1.27.79-2.14v-.57c-.48.22-.97.38-1.47.49-.51.11-1.06.16-1.65.16-2.16,0-3.82-.64-4.97-1.92-1.15-1.28-1.73-3.07-1.73-5.37,0-1.15.18-2.2.54-3.14.36-.94.88-1.75,1.56-2.43.68-.67,1.52-1.2,2.51-1.56.99-.37,2.11-.55,3.36-.55.54,0,1.09.02,1.65.07.57.05,1.13.11,1.68.19.56.08,1.09.17,1.59.28.51.11.96.22,1.35.34v13.15ZM684.02,552.54c0,2.48,1,3.72,3.01,3.72.46,0,.88-.06,1.28-.18.4-.12.73-.26,1.01-.42v-7.08c-.22-.04-.48-.07-.77-.1-.3-.03-.64-.04-1.04-.04-1.17,0-2.04.39-2.62,1.16-.58.77-.86,1.76-.86,2.95Z"/>
    <path class="cls-1" d="M710.98,557.33c.65,0,1.19-.05,1.62-.16.43-.11.77-.26,1.03-.45.26-.19.44-.41.54-.67.1-.26.15-.55.15-.86,0-.67-.32-1.23-.95-1.68s-1.73-.93-3.27-1.44c-.67-.24-1.35-.51-2.02-.82-.67-.31-1.28-.69-1.82-1.16-.54-.47-.97-1.03-1.31-1.7-.34-.66-.51-1.47-.51-2.43s.18-1.81.54-2.57c.36-.76.86-1.41,1.52-1.95.65-.54,1.45-.95,2.38-1.24.93-.29,1.98-.43,3.15-.43,1.39,0,2.59.15,3.6.45,1.01.3,1.84.62,2.5.98l-1.34,3.66c-.58-.3-1.22-.56-1.92-.79-.7-.23-1.55-.34-2.54-.34-1.11,0-1.91.15-2.4.46-.49.31-.73.78-.73,1.41,0,.38.09.69.27.95s.43.49.76.7c.33.21.7.4,1.13.57.43.17.9.34,1.41.52,1.07.4,2,.79,2.8,1.18.79.39,1.45.84,1.98,1.35.53.52.92,1.12,1.18,1.82.26.69.39,1.54.39,2.53,0,1.92-.67,3.42-2.02,4.48-1.35,1.06-3.38,1.59-6.1,1.59-.91,0-1.74-.05-2.47-.16-.73-.11-1.38-.24-1.95-.4-.57-.16-1.05-.33-1.46-.51-.41-.18-.75-.35-1.03-.51l1.31-3.69c.61.34,1.37.64,2.28.91.9.27,2.01.4,3.32.4Z"/>
    <path class="cls-1" d="M737.02,553.02c0,1.23-.18,2.36-.54,3.38-.36,1.02-.87,1.89-1.55,2.62-.67.72-1.48,1.28-2.43,1.68-.94.4-2,.6-3.17.6s-2.2-.2-3.14-.6c-.94-.4-1.75-.96-2.43-1.68-.67-.72-1.2-1.6-1.58-2.62-.38-1.02-.57-2.15-.57-3.38s.19-2.35.58-3.36c.39-1.01.92-1.87,1.61-2.59s1.5-1.27,2.44-1.67c.94-.4,1.97-.6,3.08-.6s2.17.2,3.11.6c.94.4,1.75.95,2.43,1.67.67.71,1.2,1.58,1.58,2.59.38,1.01.57,2.13.57,3.36ZM732.5,553.02c0-1.37-.27-2.44-.82-3.23-.55-.78-1.32-1.18-2.34-1.18s-1.8.39-2.35,1.18c-.56.78-.83,1.86-.83,3.23s.28,2.45.83,3.26c.56.8,1.34,1.21,2.35,1.21s1.79-.4,2.34-1.21c.55-.8.82-1.89.82-3.26Z"/>
    <path class="cls-1" d="M763.21,560.34c-.75.22-1.73.42-2.92.61-1.19.19-2.44.28-3.75.28s-2.44-.18-3.32-.54c-.88-.36-1.58-.86-2.1-1.5-.52-.64-.88-1.41-1.1-2.31s-.33-1.87-.33-2.95v-8.72h4.43v8.18c0,1.43.19,2.46.57,3.09.38.64,1.08.95,2.11.95.32,0,.65-.01,1.01-.04.36-.03.67-.06.95-.1v-12.08h4.43v15.12Z"/>
    <path class="cls-1" d="M767.23,540.49l4.43-.71v5.45h5.33v3.69h-5.33v5.51c0,.93.16,1.68.49,2.23.33.56.99.83,1.98.83.48,0,.97-.04,1.47-.13.51-.09.97-.21,1.38-.37l.62,3.45c-.54.22-1.13.41-1.79.57-.65.16-1.46.24-2.41.24-1.21,0-2.21-.16-3.01-.49-.79-.33-1.43-.78-1.9-1.37-.48-.58-.81-1.29-1-2.13-.19-.83-.28-1.76-.28-2.77v-13.99Z"/>
    <path class="cls-1" d="M785.44,540.7c0,.81-.26,1.45-.79,1.92-.53.47-1.15.7-1.86.7s-1.33-.23-1.86-.7c-.53-.47-.79-1.11-.79-1.92s.26-1.45.79-1.92c.53-.47,1.15-.7,1.86-.7s1.33.23,1.86.7c.53.47.79,1.11.79,1.92ZM785.02,560.87h-4.43v-15.65h4.43v15.65Z"/>
    <path class="cls-1" d="M803.83,553.02c0,1.23-.18,2.36-.54,3.38-.36,1.02-.87,1.89-1.55,2.62-.67.72-1.48,1.28-2.43,1.68-.94.4-2,.6-3.17.6s-2.2-.2-3.14-.6c-.94-.4-1.75-.96-2.43-1.68-.67-.72-1.2-1.6-1.58-2.62-.38-1.02-.57-2.15-.57-3.38s.19-2.35.58-3.36c.39-1.01.92-1.87,1.61-2.59s1.5-1.27,2.44-1.67,1.97-.6,3.08-.6,2.17.2,3.11.6c.94.4,1.75.95,2.43,1.67.67.71,1.2,1.58,1.58,2.59.38,1.01.57,2.13.57,3.36ZM799.31,553.02c0-1.37-.27-2.44-.82-3.23-.55-.78-1.32-1.18-2.34-1.18s-1.8.39-2.35,1.18c-.56.78-.83,1.86-.83,3.23s.28,2.45.83,3.26c.56.8,1.34,1.21,2.35,1.21s1.79-.4,2.34-1.21c.55-.8.82-1.89.82-3.26Z"/>
    <path class="cls-1" d="M807.25,545.76c.75-.22,1.73-.42,2.92-.61,1.19-.19,2.44-.28,3.75-.28s2.44.17,3.32.52c.88.35,1.58.84,2.1,1.47.52.64.88,1.39,1.1,2.26s.33,1.84.33,2.92v8.84h-4.43v-8.3c0-1.43-.19-2.44-.57-3.04-.38-.6-1.08-.89-2.11-.89-.32,0-.65.01-1.01.04-.36.03-.67.06-.95.1v12.08h-4.43v-15.12Z"/>
    <path class="cls-1" d="M829.27,557.69c.81,0,1.39-.08,1.73-.24.34-.16.51-.47.51-.92,0-.36-.22-.67-.65-.94-.44-.27-1.1-.57-1.99-.91-.69-.26-1.32-.53-1.89-.8-.57-.28-1.05-.61-1.44-1-.4-.39-.7-.85-.92-1.38-.22-.54-.33-1.18-.33-1.93,0-1.47.55-2.63,1.64-3.48,1.09-.85,2.59-1.28,4.49-1.28.95,0,1.86.08,2.74.25.87.17,1.57.35,2.08.55l-.77,3.45c-.52-.18-1.08-.34-1.68-.48-.61-.14-1.29-.21-2.04-.21-1.39,0-2.08.39-2.08,1.16,0,.18.03.34.09.48.06.14.18.27.36.4.18.13.42.27.73.42.31.15.7.32,1.18.49.97.36,1.78.72,2.41,1.07.63.35,1.14.73,1.5,1.13.37.41.63.86.77,1.35.15.49.22,1.07.22,1.72,0,1.54-.58,2.71-1.74,3.5-1.16.79-2.8,1.19-4.93,1.19-1.39,0-2.54-.12-3.47-.36s-1.56-.44-1.92-.6l.74-3.6c.75.3,1.53.53,2.32.7.79.17,1.58.25,2.35.25Z"/>
    <polygon class="cls-1" points="744.88 560.87 740.44 560.87 740.44 540.48 744.88 539.78 744.88 560.87"/>
  </g>
</svg>